<?xml version="1.0" encoding="UTF-8" standalone="no"?>
<!-- Created with Inkscape (http://www.inkscape.org/) -->

<svg
   xmlns:dc="http://purl.org/dc/elements/1.1/"
   xmlns:cc="http://creativecommons.org/ns#"
   xmlns:rdf="http://www.w3.org/1999/02/22-rdf-syntax-ns#"
   xmlns:svg="http://www.w3.org/2000/svg"
   xmlns="http://www.w3.org/2000/svg"
   xmlns:sodipodi="http://sodipodi.sourceforge.net/DTD/sodipodi-0.dtd"
   xmlns:inkscape="http://www.inkscape.org/namespaces/inkscape"
   width="210mm"
   height="297mm"
   viewBox="0 0 231.00001 326.69999"
   version="1.1"
   id="svg8"
   inkscape:version="0.92.3 (2405546, 2018-03-11)"
   sodipodi:docname="mindgit.svg">
  <defs
     id="defs2" />
  <sodipodi:namedview
     id="base"
     pagecolor="#ffffff"
     bordercolor="#666666"
     borderopacity="1.0"
     inkscape:pageopacity="0.0"
     inkscape:pageshadow="2"
     inkscape:zoom="0.35"
     inkscape:cx="-575.54607"
     inkscape:cy="746.04364"
     inkscape:document-units="mm"
     inkscape:current-layer="layer1"
     showgrid="false"
     scale-x="1.1"
     showborder="false"
     inkscape:window-width="1920"
     inkscape:window-height="996"
     inkscape:window-x="0"
     inkscape:window-y="28"
     inkscape:window-maximized="1" />
  <metadata
     id="metadata5">
    <rdf:RDF>
      <cc:Work
         rdf:about="">
        <dc:format>image/svg+xml</dc:format>
        <dc:type
           rdf:resource="http://purl.org/dc/dcmitype/StillImage" />
        <dc:title></dc:title>
      </cc:Work>
    </rdf:RDF>
  </metadata>
  <g
     inkscape:label="Calque 1"
     inkscape:groupmode="layer"
     id="layer1">
    <path
       style="stroke-width:0.62415224"
       d="M -547.7168 -756.33398 A 132.28346 132.28346 0 0 0 -680 -624.05078 A 132.28346 132.28346 0 0 0 -588.57422 -498.32031 L -588.57422 -446.39844 A 188.97638 188.97638 0 0 1 -579.5957 -446.86133 A 188.97638 188.97638 0 0 1 -512.98242 -434.50586 L -512.98242 -496.44141 A 132.28346 132.28346 0 0 0 -415.43359 -624.05078 A 132.28346 132.28346 0 0 0 -547.7168 -756.33398 z M -512.98242 -434.50586 L -512.98242 -351.53906 A 132.28346 132.28346 0 0 1 -415.43359 -224.05078 A 132.28346 132.28346 0 0 1 -436.54883 -152.60156 L -218.52734 64.257812 A 132.28346 132.28346 0 0 1 -147.7168 43.666016 A 132.28346 132.28346 0 0 1 -15.433594 175.94922 A 132.28346 132.28346 0 0 1 -106.02344 301.31641 L -106.02344 650.52344 A 132.28346 132.28346 0 0 1 -15.433594 775.94922 A 132.28346 132.28346 0 0 1 -147.7168 908.23242 A 132.28346 132.28346 0 0 1 -192.56445 900.22266 L -257.32617 964.98438 A 523.45693 287.79845 72.198571 0 0 -170.29102 1105.9082 A 523.45693 287.79845 72.198571 0 0 253.16406 1117.6289 A 523.45693 287.79845 72.198571 0 0 282.08398 869.94141 A 334.09924 415.73253 49.207085 0 0 391.32812 746.28125 A 334.09924 415.73253 49.207085 0 0 415.32812 372.89648 A 188.97638 188.97638 0 0 0 457.95312 253.54297 A 188.97638 188.97638 0 0 0 381.68359 102.13867 A 188.97638 188.97638 0 0 0 383.66797 76.400391 A 188.97638 188.97638 0 0 0 254.83008 -102.56836 A 188.97638 188.97638 0 0 0 66.119141 -284.00391 A 188.97638 188.97638 0 0 0 49.699219 -283.16016 A 188.97638 188.97638 0 0 0 -125.30859 -401.14648 A 188.97638 188.97638 0 0 0 -190.62109 -389.35742 A 188.97638 188.97638 0 0 0 -333.88086 -455.43359 A 188.97638 188.97638 0 0 0 -461.72852 -405.36914 A 188.97638 188.97638 0 0 0 -512.98242 -434.50586 z M -257.32617 964.98438 A 523.45693 287.79845 72.198571 0 1 -289.38867 890.14648 L -469.04102 1069.7988 A 132.28346 132.28346 0 0 0 -513.26562 1048.3887 L -513.26562 661.66016 A 188.97638 188.97638 0 0 1 -579.5957 673.94727 A 188.97638 188.97638 0 0 1 -588.85742 673.51562 L -588.85742 1050.3984 A 132.28346 132.28346 0 0 0 -680 1175.9492 A 132.28346 132.28346 0 0 0 -547.7168 1308.2324 A 132.28346 132.28346 0 0 0 -415.43359 1175.9492 A 132.28346 132.28346 0 0 0 -423.4082 1131.0684 L -257.32617 964.98438 z M -588.85742 673.51562 L -588.85742 616.80469 L -588.85742 -98.423828 A 132.28346 132.28346 0 0 1 -680 -224.05078 A 132.28346 132.28346 0 0 1 -588.57422 -349.69531 L -588.57422 -446.39844 A 188.97638 188.97638 0 0 0 -720.4082 -383.625 A 188.97638 188.97638 0 0 0 -805.30859 -404.00391 A 188.97638 188.97638 0 0 0 -970.92578 -306 A 188.97638 188.97638 0 0 0 -988.16602 -306.86133 A 188.97638 188.97638 0 0 0 -1174.1641 -150.20898 A 188.97638 188.97638 0 0 0 -1320 33.542969 A 188.97638 188.97638 0 0 0 -1309.7129 94.328125 A 188.97638 188.97638 0 0 0 -1345.7148 204.97266 A 188.97638 188.97638 0 0 0 -1187.7344 391.17188 A 188.97638 188.97638 0 0 0 -1005.3086 531.0918 A 188.97638 188.97638 0 0 0 -962.16406 525.86719 A 188.97638 188.97638 0 0 0 -802.45312 613.94727 A 188.97638 188.97638 0 0 0 -729.88867 599.27734 A 188.97638 188.97638 0 0 0 -588.85742 673.51562 z M -513.26562 661.66016 A 188.97638 188.97638 0 0 0 -477.99609 644.2793 A 188.97638 188.97638 0 0 0 -376.73828 673.94727 A 188.97638 188.97638 0 0 0 -344.17188 671.09961 A 523.45693 287.79845 72.198571 0 0 -289.38867 890.14648 L -253.87305 854.63086 A 132.28346 132.28346 0 0 1 -280 775.94922 A 132.28346 132.28346 0 0 1 -181.61328 648.15234 L -181.61328 303.65039 A 132.28346 132.28346 0 0 1 -280 175.94922 A 132.28346 132.28346 0 0 1 -268.14844 121.51758 L -494.15039 -103.27734 A 132.28346 132.28346 0 0 1 -513.26562 -96.376953 L -513.26562 469.08984 L -513.26562 661.66016 z "
       transform="scale(0.29104167)"
       id="path3769" />
  </g>
</svg>
